<svg id="Компонент_1_1" data-name="Компонент 1 – 1" xmlns="http://www.w3.org/2000/svg" width="40.8" height="40" viewBox="0 0 40.8 40">
  <g id="Ellipse_1_copy_3" data-name="Ellipse 1 copy 3" fill="none" stroke="#18cfab" stroke-width="1">
    <ellipse cx="20.4" cy="20" rx="20.4" ry="20" stroke="none"/>
    <ellipse cx="20.4" cy="20" rx="19.9" ry="19.5" fill="none"/>
  </g>
  <path id="Forma_1" data-name="Forma 1" d="M504.758,3325.864l-1.851-1.874a2.117,2.117,0,0,1,.009-2.985l1.945-1.941a2.1,2.1,0,0,1,2.973.008l-1.156,1.174a1.079,1.079,0,0,0-1.079.313l-1.2,1.2a1.061,1.061,0,0,0,0,1.493l1.113,1.121a1.047,1.047,0,0,0,1.486.005l1.2-1.2a1.209,1.209,0,0,0,.335-1.086l1.159-1.148a2.119,2.119,0,0,1-.009,2.985l-1.945,1.941a2.1,2.1,0,0,1-2.974-.008Zm2.5-4.3a.73.73,0,0,1,0-1.017l3.325-3.379a.694.694,0,0,1,.995,0,.731.731,0,0,1,0,1.02l-3.324,3.38a.7.7,0,0,1-.5.208A.69.69,0,0,1,507.262,3321.559Zm3.709-1.9,1.13-1.132a1.177,1.177,0,0,0,1.064-.324l1.283-1.279a1.041,1.041,0,0,0,0-1.466l-1.093-1.1a1.027,1.027,0,0,0-1.46,0l-1.283,1.277a1.075,1.075,0,0,0-.312,1.059l-1.153,1.132a2.078,2.078,0,0,1,.008-2.929l2.018-2.01a2.059,2.059,0,0,1,2.918.008l1.819,1.838a2.078,2.078,0,0,1-.009,2.931l-2.015,2.01a2.058,2.058,0,0,1-2.919-.011Z" transform="translate(-489 -3299)" fill="#1fdab5"/>
</svg>
