<svg xmlns="http://www.w3.org/2000/svg" width="22" height="29.999" viewBox="0 0 22 29.999">
  <path id="Hourglass" d="M410.275,1814.569h.862a.86.86,0,0,0,.863-.858v-.856a.859.859,0,0,0-.863-.858H390.863a.859.859,0,0,0-.863.858v.856a.861.861,0,0,0,.863.858h.863c0,7.629,6.121,7.926,6.471,12.428-.35,4.5-6.471,4.8-6.471,12.429h-.863a.86.86,0,0,0-.863.858v.855a.86.86,0,0,0,.863.857h20.274a.859.859,0,0,0,.863-.857v-.855a.86.86,0,0,0-.863-.858h-.862c0-7.63-6.121-7.926-6.471-12.429C404.154,1822.5,410.275,1822.2,410.275,1814.569Zm-2.615,24.145a.428.428,0,0,1-.355.671H394.629a.429.429,0,0,1-.373-.648,23.994,23.994,0,0,1,6.454-6.914.443.443,0,0,1,.559.027A40.754,40.754,0,0,1,407.659,1838.715Zm-6.693-13.809-4.6-4.556a13.57,13.57,0,0,0,4.193.936c1.881,0,3.488-1.324,4.9-1.324S400.966,1824.906,400.966,1824.906Z" transform="translate(-390 -1811.998)" fill="#18cfab"/>
</svg>