<?xml version="1.0" encoding="UTF-8" standalone="no"?>
<svg
   id="Loopa"
   width="4.08"
   height="4.0"
   viewBox="0 0 40.8 40"
   version="1.1"
   sodipodi:docname="Loopa.svg"
   inkscape:version="1.1 (c68e22c387, 2021-05-23)"
   xmlns:inkscape="http://www.inkscape.org/namespaces/inkscape"
   xmlns:sodipodi="http://sodipodi.sourceforge.net/DTD/sodipodi-0.dtd"
   xmlns="http://www.w3.org/2000/svg"
   xmlns:svg="http://www.w3.org/2000/svg">
  <defs
     id="defs21" />
  <sodipodi:namedview
     id="namedview19"
     pagecolor="#ffffff"
     bordercolor="#666666"
     borderopacity="1.0"
     inkscape:pageshadow="2"
     inkscape:pageopacity="0.0"
     inkscape:pagecheckerboard="0"
     showgrid="false"
     showguides="true"
     inkscape:guide-bbox="true"
     inkscape:zoom="13.27593"
     inkscape:cx="15.855763"
     inkscape:cy="24.970002"
     inkscape:window-width="1280"
     inkscape:window-height="1001"
     inkscape:window-x="-8"
     inkscape:window-y="-8"
     inkscape:window-maximized="1"
     inkscape:current-layer="Loopa" />
  <ellipse
     id="Ellipse_1"
     data-name="Ellipse 1"
     cx="20.4"
     cy="20"
     rx="20.4"
     ry="20"
     fill="#18cfab" />
  <path
     fill="currentColor"
     d="m 27.299007,24.911124 -2.33689,-2.141783 C 24.85664,22.672671 24.713661,22.618966 24.56365,22.618966 h -0.38206 c 0.646923,-0.758324 1.031326,-1.712138 1.031326,-2.749732 0,-2.468314 -2.182191,-4.468314 -4.875357,-4.468314 -2.693166,0 -4.875357,2 -4.875357,4.468314 0,2.468314 2.182191,4.468314 4.875357,4.468314 1.132115,0 2.172815,-0.35231 3.00022,-0.945221 v 0.350162 c 0,0.137486 0.0586,0.268529 0.164074,0.365199 l 2.33689,2.141783 c 0.22033,0.201932 0.576606,0.201932 0.79459,0 l 0.66333,-0.607949 c 0.220329,-0.201933 0.220329,-0.528464 0.0023,-0.730398 z m -6.961448,-2.292158 c -1.657153,0 -3.000219,-1.228787 -3.000219,-2.749732 0,-1.518797 1.340722,-2.749732 3.000219,-2.749732 1.657152,0 3.00022,1.228787 3.00022,2.749732 0,1.518798 -1.340723,2.749732 -3.00022,2.749732 z"
     id="path103"
     style="fill:#ffffff;fill-opacity:1;stroke-width:0.0224394" />
</svg>
